<?xml version="1.0" encoding="utf-8"?>
<!-- Generator: Adobe Illustrator 26.0.1, SVG Export Plug-In . SVG Version: 6.00 Build 0)  -->
<svg version="1.1" id="Layer_1" xmlns="http://www.w3.org/2000/svg" xmlns:xlink="http://www.w3.org/1999/xlink" x="0px" y="0px"
	 viewBox="0 0 1000 1000" style="enable-background:new 0 0 1000 1000;" xml:space="preserve">
<style type="text/css">
	.st0{fill:#FFFFFF;}
</style>
<g>
	<path class="st0" d="M362.2,552.5c0,76.1,61.7,137.8,137.8,137.8s137.8-61.7,137.8-137.8S576.1,414.7,500,414.7
		S362.2,476.4,362.2,552.5z"/>
	<path class="st0" d="M902.5,150H710l-70-70H360l-70,70H97.5C49.2,150,10,189.2,10,237.5v595c0,48.3,39.2,87.5,87.5,87.5h805
		c48.3,0,87.5-39.2,87.5-87.5v-595C990,189.2,950.8,150,902.5,150z M500,797.5c-135.3,0-245-109.7-245-245s109.7-245,245-245
		s245,109.7,245,245S635.3,797.5,500,797.5z"/>
</g>
</svg>
